# xmcd
#
# Track frame offsets: 
#        150
#        16505
#        31727
#        45005
#        62585
#        79060
#        94512
#        110710
#        122367
#        137615
#        152765
#        164240
#        179372
#        192387
#        205767
#        219010
#        229790
#        241832
#
# Disc length: 3409 seconds
#
# Revision: 2
# Processed by: cddbd v1.5.2PL0 Copyright (c) Steve Scherf et al.
# Submitted via: ExactAudioCopy v0.99pb3
#
DISCID=d80d4f12
DTITLE=Robert Nighthawk And Houston Stackhouse - Masters Of Modern Blu
DTITLE=es
DYEAR=1994
DGENRE=Blues
TTITLE0=Black Angel Blues
TTITLE1=Maggie Campbell
TTITLE2=Crowing Rooster Blues
TTITLE3=I'm Getting Tired
TTITLE4=Bricks In My Pillow
TTITLE5=Merry Christmas Baby
TTITLE6=Crying Won't Help You
TTITLE7=Kansas City
TTITLE8=Kidman Blues
TTITLE9=Bricks In My Pillow (Alt)
TTITLE10=Big Road Blues
TTITLE11=Cool Water Blues
TTITLE12=Big Fat Mama Blues
TTITLE13=Take A Little Walk With 
TTITLE14=Bye Bye Blues
TTITLE15=Mean Old World
TTITLE16=The Wrong Man
TTITLE17=Kansas City Blues
EXTD=TCD 5010\n\nSubmitted 6/16/97\n[Jmccoy@efn.org]
EXTT0=Nighthawk, Robert
EXTT1=Nighthawk, Robert
EXTT2=Nighthawk, Robert
EXTT3=Nighthawk, Robert
EXTT4=Nighthawk, Robert
EXTT5=Nighthawk, Robert
EXTT6=Nighthawk, Robert
EXTT7=Nighthawk, Robert
EXTT8=Young, Johnny
EXTT9=Nighthawk, Robert
EXTT10=
EXTT11=Stackhouse, Houston
EXTT12=Stackhouse, Houston
EXTT13=Stackhouse, Houston
EXTT14=Stackhouse, Houston
EXTT15=Stackhouse, Houston
EXTT16=Stackhouse, Houston
EXTT17=Stackhouse, Houston
PLAYORDER=
